HIERARCHY
ROOT Hips
{
	OFFSET 272.094208 92.886261 -190.072601
	CHANNELS 6 Xposition Yposition Zposition Zrotation Yrotation Xrotation 
	JOINT LeftUpLeg
	{
		OFFSET 0.103458 1.857832 10.548514
		CHANNELS 3 Zrotation Yrotation Xrotation
		JOINT LeftLeg
		{
			OFFSET 43.500000 -0.000027 0.000013
			CHANNELS 3 Zrotation Yrotation Xrotation
			JOINT LeftFoot
			{
				OFFSET 42.372200 0.000008 -0.000018
				CHANNELS 3 Zrotation Yrotation Xrotation
				JOINT LeftToe
				{
					OFFSET 17.299995 -0.000003 0.000021
					CHANNELS 3 Zrotation Yrotation Xrotation
					End Site
					{
						OFFSET 0.000000 0.000000 0.000000
					}
				}
			}
		}
	}
	JOINT RightUpLeg
	{
		OFFSET 0.103456 1.857824 -10.548508
		CHANNELS 3 Zrotation Yrotation Xrotation
		JOINT RightLeg
		{
			OFFSET 43.500038 -0.000019 -0.000010
			CHANNELS 3 Zrotation Yrotation Xrotation
			JOINT RightFoot
			{
				OFFSET 42.372265 -0.000011 0.000021
				CHANNELS 3 Zrotation Yrotation Xrotation
				JOINT RightToe
				{
					OFFSET 17.300001 -0.000001 0.000008
					CHANNELS 3 Zrotation Yrotation Xrotation
					End Site
					{
						OFFSET 0.000000 0.000000 0.000000
					}
				}
			}
		}
	}
	JOINT Spine
	{
		OFFSET 6.901966 -2.603731 -0.000012
		CHANNELS 3 Zrotation Yrotation Xrotation
		JOINT Spine1
		{
			OFFSET 12.588102 -0.000004 0.000024
			CHANNELS 3 Zrotation Yrotation Xrotation
			JOINT Spine2
			{
				OFFSET 12.343197 0.000004 0.000001
				CHANNELS 3 Zrotation Yrotation Xrotation
				JOINT Neck
				{
					OFFSET 25.832897 -0.000006 0.000001
					CHANNELS 3 Zrotation Yrotation Xrotation
					JOINT Head
					{
						OFFSET 11.766610 0.000010 -0.000015
						CHANNELS 3 Zrotation Yrotation Xrotation
						End Site
						{
							OFFSET 0.000000 0.000000 0.000000
						}
					}
				}
				JOINT LeftShoulder
				{
					OFFSET 19.745909 -1.480370 6.000081
					CHANNELS 3 Zrotation Yrotation Xrotation
					JOINT LeftArm
					{
						OFFSET 11.284137 -0.000004 -0.000017
						CHANNELS 3 Zrotation Yrotation Xrotation
						JOINT LeftForeArm
						{
							OFFSET 33.000042 0.000009 0.000020
							CHANNELS 3 Zrotation Yrotation Xrotation
							JOINT LeftHand
							{
								OFFSET 25.200012 0.000019 0.000012
								CHANNELS 3 Zrotation Yrotation Xrotation
								End Site
								{
									OFFSET 0.000000 0.000000 0.000000
								}
							}
						}
					}
				}
				JOINT RightShoulder
				{
					OFFSET 19.746096 -1.480375 -6.000086
					CHANNELS 3 Zrotation Yrotation Xrotation
					JOINT RightArm
					{
						OFFSET 11.284146 -0.000018 -0.000021
						CHANNELS 3 Zrotation Yrotation Xrotation
						JOINT RightForeArm
						{
							OFFSET 33.000084 0.000018 0.000009
							CHANNELS 3 Zrotation Yrotation Xrotation
							JOINT RightHand
							{
								OFFSET 25.199770 0.000139 0.000425
								CHANNELS 3 Zrotation Yrotation Xrotation
								End Site
								{
									OFFSET 0.000000 0.000000 0.000000
								}
							}
						}
					}
				}
			}
		}
	}
}
MOTION
Frames: 15
Frame Time: 0.033333
-263.130707 85.097389 445.833588 91.318816 9.493297 156.418709 156.459895 -0.930300 -172.769307 -77.076513 -1.598941 10.901049 67.338548 -9.336654 -3.637444 21.454553 0.003093 -0.000001 160.706182 3.313091 179.971496 -44.350259 3.131797 -3.462246 86.143917 3.581314 6.437960 21.454562 -0.003106 -0.000017 9.773862 1.908983 -0.021086 9.542094 3.813068 0.115456 9.223215 3.813841 0.092391 19.725687 -5.189595 -3.792387 -2.981512 7.548011 -5.715023 -177.509185 -74.470543 -4.017330 -38.719980 49.146022 25.229976 -69.717640 -11.548665 2.241082 -8.922913 -9.490539 54.074287 -153.018190 69.954968 29.178022 16.001762 -56.559820 -65.738146 -42.217659 15.003520 -1.545945 5.303034 -13.426490 -24.724861 
-262.446808 83.979851 447.981293 92.313995 9.631602 158.428410 151.634981 -4.438598 -179.554977 -85.603751 0.062718 6.960480 68.787388 -8.137102 -8.334701 21.454550 0.003088 -0.000001 160.596968 3.623705 -177.772079 -49.349121 3.458414 -3.903221 89.351442 3.439995 4.951631 21.454558 -0.003111 -0.000017 9.902814 1.815026 0.398139 9.812491 3.589632 0.949293 9.493767 3.595435 0.927581 19.929377 -3.797036 -3.928294 -2.779208 7.118798 -5.739771 -175.967598 -74.887212 -5.600953 -38.044485 46.339367 27.324746 -67.376722 -12.335033 2.200989 -10.443231 -11.509029 53.346653 -155.011389 70.227575 27.117499 11.417051 -54.726658 -59.686291 -40.813338 15.150719 -1.517174 3.573356 -11.049230 -23.243711 
-261.693390 83.883263 449.780304 93.033973 9.250848 159.743412 147.984777 -7.763000 174.599456 -88.224078 1.109347 3.542512 72.866910 -3.912853 -4.068081 21.454551 0.003093 -0.000002 161.731995 3.824996 -176.591344 -50.642783 3.673519 -3.870849 90.944338 3.193237 4.041253 21.454558 -0.003109 -0.000018 9.947603 1.680769 0.467340 9.902105 3.315265 1.077305 9.583488 3.321849 1.057253 21.148170 -3.776998 -3.262263 -3.599356 6.937980 -5.025117 -173.920904 -74.061292 -7.689782 -35.488375 43.277994 29.524838 -63.271635 -13.252260 2.103048 -11.632852 -11.347713 55.003561 -157.865192 71.330814 24.156238 6.188598 -52.981381 -52.066047 -38.578544 15.580913 -1.486644 4.784740 -7.024006 -22.878412 
-260.877106 84.449966 451.034210 93.110867 8.774735 161.498225 145.528532 -10.017594 171.903581 -84.318316 0.621680 0.320689 75.190431 -1.541624 -4.302784 21.454567 0.003093 0.000002 163.562390 3.951401 -175.126337 -49.229750 3.665582 -3.541070 91.513613 2.894903 3.800798 21.454557 -0.003110 -0.000017 9.923076 1.646979 0.319172 9.848370 3.260709 0.777726 9.529721 3.265484 0.758006 21.326637 -4.279997 -2.728144 -3.199672 6.287409 -4.272280 -171.457788 -74.107860 -10.215014 -33.797378 42.054738 29.454375 -57.059643 -13.757453 1.906947 -11.712235 -11.937434 56.914464 -157.949026 71.837887 24.060699 1.341388 -51.059065 -43.224152 -36.617139 16.536274 -1.499762 5.234978 -2.997688 -23.751011 
-260.169495 86.055008 451.816803 92.723322 7.620433 162.912415 145.713343 -10.725999 172.380984 -70.938072 -2.640967 -1.839052 75.166819 0.167266 -4.121072 21.454548 0.003092 -0.000001 166.097934 3.889803 -175.908804 -44.255309 4.104583 -2.021392 90.212462 1.935552 4.261580 21.454558 -0.003106 -0.000017 9.817992 1.430841 0.232929 9.633323 2.837224 0.584366 9.314826 2.840837 0.567216 21.090366 -4.231586 -2.296431 -3.094619 6.176484 -3.795764 -170.697888 -75.299851 -10.996924 -33.495746 42.549801 27.278471 -47.990644 -14.000278 1.620448 -9.777319 -11.772062 53.547689 -157.420329 72.548043 24.590793 -1.382716 -49.468854 -36.955869 -36.773400 17.895002 -1.591474 4.364478 3.265452 -26.518266 
-259.320190 88.101418 452.314514 92.075574 6.354248 163.905579 149.681997 -9.398191 173.347510 -47.310637 -3.667775 -4.315138 77.177374 2.170420 -3.631317 21.454553 0.003092 0.000000 169.573817 3.930403 -176.228101 -36.688091 4.043596 -0.735588 87.376930 1.194603 4.568460 21.454560 -0.003110 -0.000017 9.664988 1.216909 0.282275 9.326141 2.407027 0.661829 9.007764 2.411113 0.647279 21.216635 -4.388185 -2.124314 -3.325811 6.338627 -3.660788 -171.424498 -75.104193 -10.252759 -32.758895 41.926430 26.025804 -39.862883 -13.561553 1.360200 -2.084844 -11.944683 47.308168 -157.014219 73.871139 24.981919 -1.122590 -47.603956 -35.835632 -38.686260 18.167256 -1.657433 2.726000 10.217771 -24.675095 
-258.692200 90.805397 452.436615 91.008145 2.924458 164.568723 155.589606 -4.719101 176.549025 -20.215099 -2.171367 -9.987356 71.137342 6.270118 -3.016884 21.454553 0.003092 -0.000000 173.314589 5.940004 -176.728986 -25.940848 3.692003 0.594178 82.361372 0.540493 4.805821 21.454562 -0.003106 -0.000017 9.285163 0.539152 0.316754 8.560941 1.053350 0.672509 8.242807 1.057530 0.666141 21.179319 -4.156681 -2.130447 -3.644389 6.283882 -3.678129 -171.657708 -76.086757 -10.018060 -31.559862 42.261133 23.897661 -34.221082 -12.313618 1.143477 5.695323 -10.783714 39.291995 -155.810016 75.427411 26.182586 0.773278 -46.110375 -35.907387 -42.860619 17.443612 -1.723910 1.258003 10.880129 -21.055492 
-258.151093 92.337837 452.510498 88.957736 0.544868 165.112187 156.627152 -2.292693 -173.913746 -9.864135 -1.638326 -16.813561 77.331545 10.544281 -5.168470 21.454551 0.003091 0.000000 175.214228 7.388201 -176.911448 -17.621229 4.004471 1.560623 78.266769 -0.033511 4.601100 21.454560 -0.003107 -0.000018 8.730857 0.111739 0.383043 7.449551 0.198588 0.772468 7.131479 0.203388 0.771258 20.417882 -4.720513 -1.988972 -3.726622 6.960500 -3.717593 -170.872796 -76.373584 -10.821000 -28.859332 41.272173 25.002821 -32.074251 -11.280217 1.030576 12.254854 -9.956315 32.875473 -153.060332 77.330609 28.944658 3.409922 -44.834369 -37.484563 -48.340787 17.644173 -1.902816 1.262855 7.568508 -17.173122 
-257.448212 92.842133 452.698914 87.983649 -0.765720 166.452817 156.526571 -0.732606 -174.166668 -8.992134 -1.277969 -15.397669 77.186035 9.481134 -5.473266 21.454551 0.003091 0.000000 176.691707 8.356202 -178.876917 -13.404610 4.849995 3.751714 76.545561 -1.490118 4.823811 21.454562 -0.003105 -0.000018 8.554201 -0.198686 0.280854 7.094607 -0.414216 0.549028 6.776511 -0.410754 0.551523 18.929130 -5.112774 -1.757161 -3.519919 7.603256 -3.673225 -168.685196 -77.142301 -13.054944 -25.863688 39.435275 28.561397 -32.508931 -11.024806 1.022864 14.147610 -8.586262 31.024960 -152.134787 78.807290 29.848306 5.822945 -43.270874 -38.007537 -54.518129 16.960861 -2.064414 1.417946 5.730361 -16.080067 
-257.047913 92.680603 452.988190 87.099692 -1.166290 168.255918 154.767142 -0.936005 -178.743004 -15.485728 -2.997814 -9.629990 76.368448 5.393201 -5.647575 21.454551 0.003092 0.000000 175.553593 8.450804 -178.979725 -15.196560 4.954133 4.737387 77.830853 -2.094125 5.378320 21.454557 -0.003111 -0.000017 8.575349 -0.397598 0.301650 7.136000 -0.813037 0.578280 6.817876 -0.809392 0.583183 16.698197 -4.015164 -1.932473 -2.886580 7.408392 -3.829238 -169.009520 -78.903015 -12.723628 -23.562001 37.379026 32.259468 -33.989620 -11.001074 1.052789 11.550346 -7.844192 31.840593 -149.190811 78.510224 32.850331 6.946994 -41.711296 -37.588447 -60.169356 16.188981 -2.218400 0.776346 5.827256 -19.102789 
-256.654388 91.798637 453.297607 86.654583 -0.327748 169.210328 152.235518 -1.769196 174.974406 -27.360102 -1.383511 -2.698341 73.868913 0.712463 -4.241887 21.454551 0.003092 0.000000 172.668535 7.413407 -177.417934 -21.793155 4.007599 3.955899 81.642877 -1.407726 6.550351 21.454560 -0.003106 -0.000018 8.804571 -0.324036 0.493360 7.593605 -0.679731 0.964446 7.275512 -0.673754 0.968536 14.806315 -3.887984 -1.947245 -3.053656 8.075444 -4.066080 -169.203757 -79.816518 -12.526059 -21.644296 34.968584 35.431330 -36.177767 -11.347346 1.124705 7.502982 -7.504890 33.596502 -147.466516 78.351853 34.608869 7.379146 -40.719016 -36.024043 -64.999741 15.322218 -2.346262 0.682265 6.220722 -21.589690 
-256.255310 90.076500 453.644104 86.284004 1.114570 169.076292 150.448345 -3.596403 172.488368 -38.963320 -0.338416 2.855284 73.409282 -1.773132 0.767220 21.454557 0.003093 0.000001 167.675571 5.807495 -177.076493 -32.456752 3.177730 3.575255 86.119799 -1.373421 6.436093 21.454557 -0.003108 -0.000017 9.027480 -0.110493 0.686110 8.040546 -0.268366 1.362880 7.722547 -0.259997 1.364482 13.496199 -5.020819 -2.028115 -3.313232 8.157280 -4.290605 -166.576894 -79.372604 -15.196715 -19.361628 32.364479 37.351583 -38.761785 -11.712610 1.211032 3.333204 -7.897656 35.213214 -149.067403 78.757518 32.967984 6.430711 -40.122276 -33.220264 -68.470276 14.478942 -2.427908 -0.470379 6.048921 -21.859216 
-255.730499 88.313904 453.866394 86.768579 -0.133163 168.248473 151.136691 -2.587494 174.707346 -44.496138 -2.630524 3.966993 80.072896 -1.196283 6.009456 21.454558 0.003093 0.000000 161.019510 7.086307 -173.416194 -46.147787 -0.471355 2.137021 86.669746 -0.024799 7.824512 21.454567 -0.003104 -0.000018 9.263433 -0.611122 0.615321 8.508000 -1.265815 1.184137 8.189875 -1.258503 1.191768 12.976151 -5.254951 -1.377322 -4.803001 7.813191 -3.682585 -160.356504 -78.907611 -21.526627 -16.733801 30.852521 37.315133 -41.290915 -12.143879 1.304745 0.794192 -7.093064 37.185968 -155.718409 78.902434 26.202236 4.464384 -40.363850 -28.721728 -71.170441 13.315740 -2.458674 -0.827700 4.121243 -22.823011 
-254.879898 86.408203 454.226990 88.205719 -2.478882 167.864685 151.284879 -0.276595 175.481384 -47.628419 -3.646051 2.673036 85.161155 -0.588225 5.741572 21.454557 0.003093 0.000001 154.131415 9.663696 -172.852485 -61.604311 -2.280010 3.550295 85.083578 -0.499204 9.522089 21.454557 -0.003114 -0.000019 9.527104 -1.389464 0.339154 9.037086 -2.801158 0.568939 8.718593 -2.797534 0.585864 12.383455 -6.186852 -0.729522 -4.953362 8.479657 -3.277100 -154.858010 -77.490839 -27.150734 -15.030369 28.572109 37.362050 -43.424960 -11.986697 1.352707 -0.266372 -6.526523 35.755108 -159.822096 79.960321 22.013150 2.794416 -42.952502 -25.117479 -73.919142 12.163663 -2.493971 -2.501477 4.638183 -25.182356 
-253.647003 84.548027 454.970001 90.536849 -2.923572 169.557984 151.399025 0.168702 177.187497 -53.194155 -5.129481 2.814134 87.769106 -0.813732 5.562262 21.454555 0.003092 -0.000000 149.729221 11.099794 -170.822526 -78.956031 -3.128661 6.433173 86.217334 -2.346989 10.710521 21.454551 -0.003114 -0.000016 9.973997 -1.890534 0.157492 9.938030 -3.787573 0.152002 9.619184 -3.786450 0.174913 14.192021 -5.582667 -1.045022 -7.120771 9.333442 -3.884522 -156.892136 -76.510973 -25.096849 -14.020437 24.475232 37.739889 -45.468142 -10.635690 1.321500 -1.509531 -7.442376 32.242028 -157.643594 78.762108 24.247003 2.441602 -43.453862 -24.427511 -79.136334 9.643844 -2.541939 -4.554281 6.980444 -29.409504 
